<?xml version="1.0" encoding="utf-8"?>
<!-- Generator: Adobe Illustrator 22.1.0, SVG Export Plug-In . SVG Version: 6.00 Build 0)  -->
<svg version="1.1" id="livetype" xmlns="http://www.w3.org/2000/svg" xmlns:xlink="http://www.w3.org/1999/xlink" x="0px" y="0px"
	 viewBox="0 0 134.341 40" style="enable-background:new 0 0 134.341 40;" xml:space="preserve">
<style type="text/css">
	.st0{fill:#A6A5A5;}
	.st1{fill:#FFFFFF;}
	.st2{fill:#5BC8F3;}
	.st3{fill:url(#SVGID_1_);}
	.st4{fill:url(#SVGID_2_);}
	.st5{fill:url(#SVGID_3_);}
	.st6{fill:#FFFFFF;stroke:#FFFFFF;stroke-width:0.1988;stroke-miterlimit:10;}
</style>
<title>Download_on_the_App_Store_Badge_FR_RGB_blk_100517</title>
<g>
	<g>
		<path d="M129.198,39.753H4.969C2.236,39.753,0,37.517,0,34.784V4.969C0,2.236,2.236,0,4.969,0h124.228
			c2.733,0,4.969,2.236,4.969,4.969v29.815C134.167,37.517,131.931,39.753,129.198,39.753z"/>
	</g>
	<g>
		<g>
			<path class="st0" d="M129.198,0.795c2.302,0,4.174,1.872,4.174,4.174v29.815c0,2.302-1.872,4.174-4.174,4.174H4.969
				c-2.302,0-4.174-1.872-4.174-4.174V4.969c0-2.302,1.872-4.174,4.174-4.174H129.198 M129.198,0H4.969C2.236,0,0,2.236,0,4.969
				v29.815c0,2.733,2.236,4.969,4.969,4.969h124.228c2.733,0,4.969-2.236,4.969-4.969V4.969C134.167,2.236,131.931,0,129.198,0
				L129.198,0z"/>
		</g>
	</g>
	<path class="st1" d="M67.715,21.618c-2.337,0-4.243,1.777-4.243,4.227c0,2.434,1.905,4.227,4.243,4.227s4.243-1.793,4.243-4.227
		C71.958,23.395,70.053,21.618,67.715,21.618z M67.715,28.406c-1.281,0-2.386-1.056-2.386-2.562c0-1.521,1.105-2.562,2.386-2.562
		s2.385,1.041,2.385,2.562C70.101,27.349,68.996,28.406,67.715,28.406z M58.46,21.618c-2.337,0-4.243,1.777-4.243,4.227
		c0,2.434,1.905,4.227,4.243,4.227s4.243-1.793,4.243-4.227C62.703,23.395,60.797,21.618,58.46,21.618z M58.46,28.406
		c-1.281,0-2.386-1.056-2.386-2.562c0-1.521,1.105-2.562,2.386-2.562s2.385,1.041,2.385,2.562
		C60.845,27.349,59.74,28.406,58.46,28.406z M47.449,22.915v1.793h4.291c-0.128,1.009-0.464,1.745-0.977,2.258
		c-0.624,0.624-1.601,1.313-3.314,1.313c-2.642,0-4.707-2.13-4.707-4.771s2.065-4.771,4.707-4.771c1.425,0,2.466,0.561,3.234,1.281
		l1.265-1.265c-1.072-1.025-2.497-1.809-4.499-1.809c-3.619,0-6.661,2.946-6.661,6.564c0,3.619,3.042,6.564,6.661,6.564
		c1.954,0,3.427-0.64,4.58-1.842c1.185-1.185,1.553-2.85,1.553-4.195c0-0.416-0.032-0.801-0.096-1.121L47.449,22.915L47.449,22.915z
		 M92.478,24.307c-0.352-0.945-1.425-2.689-3.619-2.689c-2.177,0-3.986,1.713-3.986,4.227c0,2.369,1.793,4.227,4.195,4.227
		c1.937,0,3.058-1.185,3.522-1.873l-1.441-0.961c-0.48,0.705-1.137,1.169-2.081,1.169c-0.945,0-1.617-0.432-2.049-1.281l5.652-2.337
		L92.478,24.307z M86.713,25.716c-0.048-1.633,1.265-2.466,2.209-2.466c0.736,0,1.361,0.368,1.569,0.896L86.713,25.716z
		 M82.119,29.815h1.857V17.391h-1.857V29.815z M79.076,22.562h-0.064c-0.416-0.496-1.216-0.944-2.225-0.944
		c-2.114,0-4.051,1.857-4.051,4.243c0,2.369,1.937,4.211,4.051,4.211c1.009,0,1.809-0.448,2.225-0.961h0.064v0.608
		c0,1.617-0.865,2.482-2.258,2.482c-1.137,0-1.842-0.817-2.13-1.505l-1.617,0.673c0.464,1.121,1.697,2.497,3.747,2.497
		c2.177,0,4.019-1.281,4.019-4.403v-7.589h-1.761V22.562z M76.947,28.406c-1.281,0-2.353-1.072-2.353-2.546
		c0-1.489,1.072-2.578,2.353-2.578c1.265,0,2.258,1.088,2.258,2.578C79.204,27.333,78.212,28.406,76.947,28.406z M101.178,17.391
		h-4.443v12.424h1.854v-4.707h2.59c2.055,0,4.076-1.488,4.076-3.858S103.233,17.391,101.178,17.391z M101.225,23.379h-2.638V19.12
		h2.638c1.386,0,2.174,1.148,2.174,2.13C103.399,22.212,102.612,23.379,101.225,23.379z M112.686,21.595
		c-1.343,0-2.733,0.591-3.308,1.902l1.647,0.688c0.352-0.688,1.007-0.911,1.694-0.911c0.959,0,1.934,0.575,1.95,1.598V25
		c-0.336-0.192-1.055-0.48-1.934-0.48c-1.774,0-3.581,0.975-3.581,2.798c0,1.663,1.455,2.733,3.085,2.733
		c1.247,0,1.934-0.56,2.365-1.214h0.064v0.959h1.79v-4.763C116.458,22.825,114.812,21.595,112.686,21.595z M112.462,28.404
		c-0.607,0-1.455-0.304-1.455-1.055c0-0.959,1.055-1.327,1.966-1.327c0.815,0,1.199,0.176,1.694,0.415
		C114.524,27.589,113.533,28.404,112.462,28.404z M122.979,21.866l-2.126,5.387h-0.064l-2.205-5.387h-1.998l3.308,7.528
		l-1.886,4.188h1.934l5.099-11.716H122.979z M106.276,29.815h1.854V17.391h-1.854V29.815z"/>
	<g>
		<g>
			<g>
				<path class="st2" d="M10.371,7.5c-0.289,0.306-0.459,0.78-0.459,1.395v21.962c0,0.615,0.171,1.089,0.459,1.395l0.074,0.072
					l12.303-12.303v-0.145v-0.145L10.444,7.429L10.371,7.5z"/>
				
					<linearGradient id="SVGID_1_" gradientUnits="userSpaceOnUse" x1="30.8969" y1="20.0129" x2="6.8693" y2="20.0129" gradientTransform="matrix(1 0 0 -1 0 39.89)">
					<stop  offset="0" style="stop-color:#FFDF00"/>
					<stop  offset="0.4087" style="stop-color:#FBBC0E"/>
					<stop  offset="0.7754" style="stop-color:#F9A418"/>
					<stop  offset="1" style="stop-color:#F89B1C"/>
				</linearGradient>
				<path class="st3" d="M26.846,24.124l-4.101-4.103v-0.145v-0.145l4.102-4.102l0.092,0.053l4.859,2.761
					c1.387,0.788,1.387,2.079,0,2.867l-4.859,2.761L26.846,24.124z"/>
				
					<linearGradient id="SVGID_2_" gradientUnits="userSpaceOnUse" x1="24.6616" y1="17.7344" x2="2.0624" y2="-4.8648" gradientTransform="matrix(1 0 0 -1 0 39.89)">
					<stop  offset="0" style="stop-color:#EE4447"/>
					<stop  offset="1" style="stop-color:#C5166C"/>
				</linearGradient>
				<path class="st4" d="M26.941,24.07l-4.194-4.194L10.371,32.253c0.457,0.484,1.212,0.544,2.063,0.061L26.941,24.07"/>
				
					<linearGradient id="SVGID_3_" gradientUnits="userSpaceOnUse" x1="1.9617" y1="44.9924" x2="20.4133" y2="26.5408" gradientTransform="matrix(1 0 0 -1 0 39.89)">
					<stop  offset="0" style="stop-color:#269E6F"/>
					<stop  offset="0.0509" style="stop-color:#2BA06F"/>
					<stop  offset="0.4663" style="stop-color:#53B26B"/>
					<stop  offset="0.7971" style="stop-color:#6BBD69"/>
					<stop  offset="1" style="stop-color:#74C168"/>
				</linearGradient>
				<path class="st5" d="M26.941,15.683L12.435,7.44c-0.851-0.483-1.606-0.423-2.063,0.061l12.375,12.376L26.941,15.683z"/>
			</g>
		</g>
	</g>
</g>
<g>
	<path class="st6" d="M41.023,12.92V6.957h1.824c0.916,0,1.649,0.276,2.199,0.829c0.55,0.553,0.824,1.269,0.824,2.153
		c0,0.883-0.274,1.6-0.824,2.153c-0.551,0.553-1.283,0.829-2.199,0.829H41.023z M41.789,12.187h1.057
		c0.688,0,1.233-0.197,1.636-0.591c0.403-0.394,0.603-0.947,0.603-1.657c0-0.705-0.201-1.256-0.603-1.654
		C44.08,7.889,43.535,7.69,42.847,7.69h-1.057V12.187z"/>
	<path class="st6" d="M46.945,12.92V6.957h0.766v5.963H46.945z"/>
	<path class="st6" d="M50.759,13.053c-0.433,0-0.856-0.141-1.269-0.424c-0.414-0.283-0.686-0.681-0.812-1.192l0.7-0.283
		c0.083,0.328,0.253,0.604,0.512,0.828c0.259,0.225,0.549,0.337,0.871,0.337c0.333,0,0.618-0.087,0.854-0.262
		c0.236-0.175,0.353-0.412,0.353-0.713c0-0.333-0.117-0.589-0.353-0.77c-0.236-0.181-0.609-0.349-1.12-0.504
		c-0.528-0.166-0.928-0.382-1.2-0.645c-0.271-0.263-0.408-0.6-0.408-1.012c0-0.427,0.17-0.799,0.509-1.115
		c0.339-0.316,0.78-0.475,1.324-0.475c0.506,0,0.916,0.127,1.232,0.379c0.316,0.252,0.522,0.529,0.616,0.829l-0.699,0.291
		c-0.051-0.188-0.174-0.364-0.371-0.525c-0.197-0.161-0.451-0.241-0.763-0.241c-0.294,0-0.546,0.081-0.753,0.245
		c-0.209,0.164-0.312,0.368-0.312,0.612c0,0.223,0.096,0.409,0.287,0.563c0.192,0.152,0.474,0.29,0.846,0.412
		c0.294,0.094,0.54,0.186,0.737,0.275c0.197,0.088,0.397,0.207,0.599,0.354s0.356,0.331,0.458,0.55
		c0.102,0.22,0.154,0.473,0.154,0.762c0,0.288-0.059,0.547-0.179,0.774c-0.119,0.228-0.278,0.408-0.476,0.542
		c-0.197,0.133-0.408,0.235-0.637,0.304C51.231,13.018,50.997,13.053,50.759,13.053z"/>
	<path class="st6" d="M54.615,12.92h-0.766V6.957h2.032c0.505,0,0.942,0.168,1.311,0.504c0.37,0.336,0.555,0.759,0.555,1.27
		S57.561,9.664,57.192,10c-0.369,0.336-0.807,0.504-1.311,0.504h-1.266C54.615,10.504,54.615,12.92,54.615,12.92z M54.615,9.771
		h1.283c0.322,0,0.58-0.107,0.774-0.324c0.194-0.217,0.291-0.455,0.291-0.717c0-0.261-0.097-0.5-0.291-0.717
		c-0.194-0.217-0.452-0.325-0.774-0.325h-1.283V9.771z"/>
	<path class="st6" d="M63.588,12.15c-0.586,0.603-1.315,0.903-2.186,0.903c-0.872,0-1.6-0.301-2.185-0.903
		c-0.586-0.602-0.879-1.34-0.879-2.211c0-0.872,0.292-1.609,0.879-2.211c0.585-0.603,1.314-0.904,2.185-0.904
		c0.867,0,1.594,0.303,2.182,0.908c0.588,0.605,0.883,1.341,0.883,2.207C64.467,10.81,64.173,11.547,63.588,12.15z M59.782,11.65
		c0.441,0.447,0.981,0.67,1.62,0.67c0.639,0,1.18-0.224,1.62-0.67c0.441-0.447,0.663-1.018,0.663-1.711s-0.222-1.264-0.663-1.711
		c-0.44-0.447-0.981-0.67-1.62-0.67c-0.639,0-1.179,0.224-1.62,0.67c-0.44,0.447-0.662,1.018-0.662,1.711
		S59.341,11.202,59.782,11.65z"/>
	<path class="st6" d="M65.542,12.92V6.957h0.932l2.898,4.638h0.033l-0.033-1.149V6.957h0.766v5.963h-0.8l-3.032-4.864h-0.033
		l0.033,1.149v3.715H65.542z"/>
	<path class="st6" d="M71.505,12.92V6.957h0.766v5.963H71.505z"/>
	<path class="st6" d="M73.637,12.92V6.957h2.157c0.467,0,0.871,0.154,1.212,0.462c0.342,0.309,0.513,0.696,0.513,1.162
		c0,0.283-0.074,0.534-0.222,0.749c-0.146,0.217-0.343,0.381-0.587,0.492v0.033c0.294,0.1,0.536,0.272,0.724,0.516
		c0.188,0.244,0.283,0.528,0.283,0.85c0,0.489-0.18,0.893-0.538,1.215c-0.358,0.323-0.781,0.484-1.27,0.484H73.637z M74.402,9.513
		h1.39c0.289,0,0.521-0.095,0.696-0.287c0.175-0.191,0.262-0.401,0.262-0.628c0-0.228-0.084-0.436-0.254-0.624
		c-0.169-0.189-0.393-0.283-0.67-0.283h-1.425L74.402,9.513L74.402,9.513z M74.402,12.187h1.541c0.294,0,0.533-0.102,0.717-0.309
		c0.184-0.205,0.274-0.43,0.274-0.675c0-0.244-0.094-0.467-0.283-0.67c-0.188-0.203-0.435-0.304-0.741-0.304h-1.508V12.187z"/>
	<path class="st6" d="M78.75,12.92V6.957h0.766v5.231h2.582v0.732H78.75z"/>
	<path class="st6" d="M86.545,7.689H83.83v1.89h2.449v0.717H83.83v1.89h2.715v0.733h-3.481V6.957h3.481V7.689z"/>
	<path class="st6" d="M91.176,13.053c-0.433,0-0.856-0.141-1.269-0.424c-0.414-0.283-0.685-0.681-0.812-1.192l0.7-0.283
		c0.083,0.328,0.253,0.604,0.512,0.828c0.259,0.225,0.549,0.337,0.871,0.337c0.333,0,0.618-0.087,0.854-0.262
		s0.353-0.412,0.353-0.713c0-0.333-0.117-0.589-0.353-0.77c-0.236-0.181-0.609-0.349-1.12-0.504c-0.528-0.166-0.928-0.382-1.2-0.645
		c-0.271-0.263-0.408-0.6-0.408-1.012c0-0.427,0.17-0.799,0.509-1.115c0.339-0.316,0.78-0.475,1.324-0.475
		c0.506,0,0.916,0.127,1.232,0.379c0.316,0.252,0.522,0.529,0.616,0.829l-0.699,0.291c-0.051-0.188-0.174-0.364-0.371-0.525
		c-0.197-0.161-0.451-0.241-0.763-0.241c-0.294,0-0.546,0.081-0.753,0.245c-0.209,0.164-0.312,0.368-0.312,0.612
		c0,0.223,0.096,0.409,0.287,0.563c0.192,0.152,0.474,0.29,0.846,0.412c0.294,0.094,0.54,0.186,0.737,0.275
		c0.197,0.088,0.397,0.207,0.599,0.354c0.203,0.147,0.355,0.331,0.458,0.55c0.103,0.22,0.154,0.473,0.154,0.762
		c0,0.288-0.06,0.547-0.179,0.774c-0.119,0.228-0.278,0.408-0.476,0.542c-0.197,0.133-0.408,0.235-0.637,0.304
		C91.648,13.018,91.414,13.053,91.176,13.053z"/>
	<path class="st6" d="M96.34,13.053c-0.656,0-1.187-0.217-1.595-0.649c-0.407-0.433-0.611-1-0.611-1.698V6.957H94.9v3.782
		c0,0.472,0.123,0.853,0.371,1.145c0.246,0.291,0.603,0.436,1.07,0.436c0.466,0,0.823-0.145,1.069-0.436
		c0.247-0.292,0.371-0.674,0.371-1.145V6.957h0.766v3.748c0,0.705-0.199,1.273-0.596,1.702
		C97.553,12.838,97.015,13.053,96.34,13.053z"/>
	<path class="st6" d="M99.778,12.92V6.957h2.032c0.505,0,0.942,0.168,1.311,0.504c0.37,0.336,0.555,0.759,0.555,1.27
		c0,0.416-0.136,0.784-0.408,1.103c-0.271,0.319-0.61,0.52-1.016,0.603l-0.017,0.025l1.675,2.424v0.034h-0.907l-1.607-2.415h-0.85
		v2.415H99.778z M100.545,9.788h1.232c0.306,0,0.567-0.1,0.787-0.3c0.22-0.2,0.329-0.452,0.329-0.757c0-0.261-0.097-0.5-0.291-0.717
		c-0.194-0.217-0.452-0.325-0.774-0.325h-1.283V9.788z"/>
</g>
</svg>
