<?xml version="1.0" encoding="utf-8"?>
<!-- Generator: Adobe Illustrator 22.1.0, SVG Export Plug-In . SVG Version: 6.00 Build 0)  -->
<svg version="1.1" id="flag-icon-css-in" xmlns="http://www.w3.org/2000/svg" xmlns:xlink="http://www.w3.org/1999/xlink" x="0px"
	 y="0px" viewBox="0 0 96 96" style="enable-background:new 0 0 96 96;" xml:space="preserve">
<style type="text/css">
	.st0{fill:#009EFF;}
</style>
<path class="st0" d="M30.033,62.532H2.694c2.367,7.35,6.476,13.915,11.835,19.222h18.958C31.869,76.031,30.711,69.434,30.033,62.532
	z"/>
<path class="st0" d="M2.694,33.311h27.339c0.677-6.902,1.836-13.499,3.453-19.222H14.529C9.17,19.396,5.061,25.96,2.694,33.311z"/>
<path class="st0" d="M29.316,47.921c0-3.198,0.109-6.419,0.312-9.611H1.392c-0.637,3.105-0.982,6.317-0.982,9.611
	s0.345,6.505,0.982,9.611h28.237C29.425,54.341,29.316,51.119,29.316,47.921z"/>
<path class="st0" d="M20.465,86.754c5.437,3.867,11.719,6.625,18.518,7.936c-1.455-2.172-2.745-4.872-3.879-7.936H20.465z"/>
<path class="st0" d="M35.104,9.089c1.135-3.063,2.424-5.763,3.879-7.936c-6.798,1.31-13.08,4.068-18.517,7.936H35.104z"/>
<path class="st0" d="M55.654,9.089c-2.073-4.965-4.4-7.995-6.521-8.781c-0.362-0.008-0.72-0.027-1.083-0.027
	S47.329,0.3,46.968,0.308c-2.121,0.786-4.448,3.816-6.521,8.781H55.654z"/>
<path class="st0" d="M34.316,47.921c0,3.355,0.105,6.559,0.295,9.611h26.878c0.19-3.052,0.295-6.256,0.295-9.611
	s-0.105-6.559-0.295-9.611H34.611C34.421,41.362,34.316,44.567,34.316,47.921z"/>
<path class="st0" d="M38.659,14.089c-1.587,5.153-2.896,11.617-3.648,19.222H61.09c-0.752-7.605-2.061-14.069-3.648-19.222
	C57.442,14.089,38.659,14.089,38.659,14.089z"/>
<path class="st0" d="M40.447,86.754c2.074,4.966,4.401,7.996,6.522,8.781c0.361,0.008,0.719,0.027,1.081,0.027
	s0.72-0.019,1.081-0.027c2.122-0.785,4.449-3.815,6.522-8.781H40.447z"/>
<path class="st0" d="M61.09,62.532H35.011c0.752,7.605,2.061,14.069,3.648,19.222h18.784C59.029,76.601,60.338,70.137,61.09,62.532z
	"/>
<path class="st0" d="M66.784,47.921c0,3.198-0.109,6.419-0.312,9.611h28.237c0.637-3.105,0.982-6.317,0.982-9.611
	s-0.345-6.506-0.982-9.611H66.472C66.675,41.502,66.784,44.723,66.784,47.921z"/>
<path class="st0" d="M75.635,9.089c-5.437-3.867-11.719-6.625-18.517-7.936c1.455,2.172,2.744,4.872,3.879,7.936H75.635z"/>
<path class="st0" d="M66.067,33.311h27.339c-2.367-7.35-6.476-13.915-11.835-19.222H62.614
	C64.231,19.812,65.39,26.409,66.067,33.311z"/>
<path class="st0" d="M60.997,86.754c-1.135,3.063-2.424,5.763-3.879,7.936c6.799-1.31,13.081-4.068,18.518-7.936H60.997z"/>
<path class="st0" d="M66.067,62.532c-0.677,6.902-1.836,13.499-3.453,19.222h18.958c5.359-5.307,9.468-11.871,11.835-19.222
	C93.407,62.532,66.067,62.532,66.067,62.532z"/>
</svg>
